<svg width="16" height="16" viewBox="0 0 16 16" fill="none" xmlns="http://www.w3.org/2000/svg">
    <path
        d="M5.65399 12.3342C5.76521 12.3345 5.87511 12.3125 5.9756 12.2698C6.07609 12.2272 6.16462 12.1648 6.2347 12.0875L9.83063 8.0875C9.94014 7.96821 10 7.81858 10 7.66417C10 7.50975 9.94014 7.36012 9.83063 7.24083L6.10813 3.24083C5.98176 3.10469 5.80017 3.01907 5.6033 3.00282C5.40644 2.98657 5.21042 3.04101 5.05838 3.15417C4.90634 3.26733 4.81073 3.42993 4.79258 3.60622C4.77443 3.7825 4.83523 3.95802 4.9616 4.09417L8.28952 7.6675L5.07327 11.2408C4.98223 11.3387 4.9244 11.4579 4.90663 11.5842C4.88885 11.7106 4.91186 11.8389 4.97296 11.9539C5.03405 12.0689 5.13065 12.1658 5.25134 12.2332C5.37204 12.3006 5.51176 12.3357 5.65399 12.3342Z"
        fill="#011350" />
</svg>