<svg width="24"
    height="24"
    viewBox="0 0 24 24"
    fill="none"
    xmlns="http://www.w3.org/2000/svg">
    <path
        d="M21.54 7.854a.545.545 0 0 0-.467-.245H8.64l-.953-3.212a2.478 2.478 0 0 0-.347-.744 1.356 1.356 0 0 0-.467-.435 2.054 2.054 0 0 0-.43-.173A1.518 1.518 0 0 0 6.075 3H3.568A.562.562 0 0 0 3 3.58c0 .097.024.191.073.282.05.09.12.16.21.209a.6.6 0 0 0 .285.072h2.508c.049 0 .095.006.138.018.042.012.1.064.173.155.074.09.135.226.184.408l3.24 11.794a.657.657 0 0 0 .312.363.529.529 0 0 0 .238.055h7.91a.578.578 0 0 0 .339-.11.538.538 0 0 0 .21-.272l2.802-8.165a.578.578 0 0 0-.083-.535Zm-3.672 7.92h-7.05L8.952 8.77h11.28l-2.363 7.004Zm-1.153 2.323c-.403 0-.748.142-1.035.426-.287.285-.43.626-.43 1.025 0 .4.143.741.43 1.026.287.284.632.426 1.035.426.402 0 .747-.142 1.034-.426.287-.285.43-.626.43-1.026 0-.399-.143-.74-.43-1.025a1.417 1.417 0 0 0-1.034-.426Zm-5.274 0c-.268 0-.516.066-.741.2a1.469 1.469 0 0 0-.531.526c-.129.217-.193.46-.193.725 0 .4.144.741.43 1.026.287.284.632.426 1.035.426.403 0 .748-.142 1.035-.426.287-.285.43-.626.43-1.026 0-.096-.01-.193-.027-.29a1.28 1.28 0 0 0-.22-.517 1.578 1.578 0 0 0-.65-.535 1.318 1.318 0 0 0-.275-.082 1.595 1.595 0 0 0-.293-.027Z"
        fill="#011350" />
</svg>