<svg width="16" height="16" viewBox="0 0 16 16" fill="none" xmlns="http://www.w3.org/2000/svg">
    <path
        d="M11.6 14.667A10.28 10.28 0 0 1 1.333 4.4 3.067 3.067 0 0 1 4.4 1.333c.172-.001.344.015.513.047.164.024.325.064.48.12a.667.667 0 0 1 .434.5l.913 4a.667.667 0 0 1-.173.613c-.087.094-.094.1-.913.527A6.607 6.607 0 0 0 8.9 10.4c.434-.827.44-.833.534-.92a.667.667 0 0 1 .613-.173l4 .913a.667.667 0 0 1 .48.433 2.89 2.89 0 0 1 .167.994 3.067 3.067 0 0 1-3.094 3.02Z"
        fill="#011350" />
</svg>